<?xml version="1.0" encoding="utf-8"?>
<!-- Generator: Adobe Illustrator 24.3.0, SVG Export Plug-In . SVG Version: 6.00 Build 0)  -->
<svg version="1.1" id="レイヤー_1" xmlns="http://www.w3.org/2000/svg" xmlns:xlink="http://www.w3.org/1999/xlink" x="0px"
	 y="0px" viewBox="0 0 96.835 96.835" style="enable-background:new 0 0 96.835 96.835;" xml:space="preserve">
<circle id="楕円形_32" style="fill:#F0F3F5;" cx="48.418" cy="48.418" r="48.418"/>
<g style="display:none;">
	<defs>
		<rect id="SVGID_1_" x="-224.331" y="20.55" width="120" height="120"/>
	</defs>
	<clipPath id="SVGID_2_" style="display:inline;">
		<use xlink:href="#SVGID_1_"  style="overflow:visible;"/>
	</clipPath>
	<g id="Icon_-_User" transform="translate(60 60)" style="display:inline;clip-path:url(#SVGID_2_);">
		<path id="合体_1" style="fill:#95A3B2;" d="M-284.331,80.55v-15c0-16.5,27-30,60-30s60,13.5,60,30v15H-284.331z M-254.331-9.45
			c0-16.569,13.431-30,30-30s30,13.431,30,30s-13.431,30-30,30S-254.331,7.119-254.331-9.45z"/>
	</g>
</g>
<g>
	<path style="fill:#A3A3A3;" d="M72.756,87.867c0.013-0.499,0.022-1,0.022-1.504c0-20.301-10.907-36.757-24.36-36.757
		s-24.36,16.457-24.36,36.757c0,0.504,0.009,1.005,0.022,1.504H72.756z"/>
	<path style="fill:#A3A3A3;" d="M48.418,8.968c-1.598,0-3.151,0.192-4.638,0.553c-2.605,0.631-5.007,1.78-7.09,3.335
		c-4.797,3.579-7.903,9.299-7.903,15.745c0,0.349,0.009,0.695,0.027,1.039c0.54,10.359,9.111,18.593,19.604,18.593
		c10.621,0,19.271-8.435,19.62-18.971c0.007-0.22,0.012-0.44,0.012-0.661C68.049,17.757,59.26,8.968,48.418,8.968z M48.418,44.222
		c-8.628,0-15.622-6.994-15.622-15.622c0-0.446,0.02-0.887,0.056-1.323c3.081-2.149,5.657-4.84,7.545-7.909
		c5,5.857,13.684,9.798,23.623,10.012C63.614,37.645,56.784,44.222,48.418,44.222z"/>
</g>
</svg>
