<?xml version="1.0" encoding="utf-8"?>
<!-- Generator: Adobe Illustrator 24.3.0, SVG Export Plug-In . SVG Version: 6.00 Build 0)  -->
<svg version="1.1" id="レイヤー_1" xmlns="http://www.w3.org/2000/svg" xmlns:xlink="http://www.w3.org/1999/xlink" x="0px"
	 y="0px" viewBox="0 0 196.361 244.646" style="enable-background:new 0 0 196.361 244.646;" xml:space="preserve">
<rect id="長方形_89" style="fill:#F0F3F5;" width="196.361" height="244.646"/>
<g>
	<path style="fill:#A3A3A3;" d="M141.633,192.754c0.024-0.891,0.039-1.785,0.039-2.685c0-36.243-19.472-65.624-43.492-65.624
		s-43.492,29.381-43.492,65.624c0,0.9,0.015,1.794,0.039,2.685H141.633z"/>
	<path style="fill:#A3A3A3;" d="M98.18,51.893c-2.853,0-5.625,0.343-8.28,0.987c-4.651,1.127-8.94,3.179-12.659,5.954
		c-8.564,6.39-14.11,16.602-14.11,28.109c0,0.622,0.017,1.241,0.049,1.855c0.965,18.495,16.266,33.194,35.001,33.194
		c18.962,0,34.405-15.059,35.027-33.869c0.013-0.392,0.022-0.785,0.022-1.18C133.23,67.585,117.538,51.893,98.18,51.893z
		 M98.18,114.832c-15.403,0-27.89-12.487-27.89-27.89c0-0.796,0.035-1.584,0.101-2.363c5.501-3.837,10.1-8.64,13.471-14.121
		c8.927,10.457,24.431,17.492,42.174,17.875C125.311,103.09,113.117,114.832,98.18,114.832z"/>
</g>
</svg>
