<?xml version="1.0" encoding="utf-8"?>
<!-- Generator: Adobe Illustrator 24.3.0, SVG Export Plug-In . SVG Version: 6.00 Build 0)  -->
<svg version="1.1" id="レイヤー_1" xmlns="http://www.w3.org/2000/svg" xmlns:xlink="http://www.w3.org/1999/xlink" x="0px"
	 y="0px" viewBox="0 0 27.745 23.847" style="enable-background:new 0 0 27.745 23.847;" xml:space="preserve">
<g id="Icon_-_Facebook" transform="translate(72)">
	<path id="パス_782" style="fill:#95A3B2;" d="M12.647,19.891L12.647,19.891c-4.389-0.463-7.57-4.395-7.107-8.783
		C6.002,6.721,9.934,3.54,14.322,4c4.387,0.463,7.568,4.395,7.107,8.783c-0.383,3.627-3.174,6.535-6.783,7.066v-5.082h2.168v-2
		h-2.168v-0.166c0-2.264,0.699-2.668,2.668-2.668v-2h-0.006c-2.17,0-4.658,0.529-4.658,4.666v0.166h-2.168v2h2.168v5.123
		L12.647,19.891z"/>
</g>
<g id="Icon_-_Twitter" transform="translate(36 2.002)">
	<path id="パス_779" style="fill:#95A3B2;" d="M13.495,7.332c-0.356-1.606,0.546-3.223,2.1-3.763
		c1.642-0.744,3.316,0.848,3.316,0.848l2-0.8c0,0.857-1.429,1.714-1.429,1.714c0.677,0.002,1.351-0.094,2-0.286
		c0,0.286-1.714,1.714-1.714,1.714c0,6.857-5.143,9.714-9.429,9.714s-4.857-1.714-4.857-1.714c3.429,0,4.572-1.429,4.572-1.429
		c-0.857,0.571-2.857-2-2.857-2c0.561,0.152,1.153,0.152,1.714,0c-1.714-0.286-2.857-3.429-2.857-3.429
		C6.34,8.472,7.768,8.472,7.768,8.472c-1.324-1.119-1.784-2.96-1.143-4.571C8.336,6.757,13.495,7.332,13.495,7.332z"/>
</g>
<g id="Icon_-_Instagram" transform="translate(0 0)">
	<g id="グループ_1486">
		<path id="パス_784" style="fill:#95A3B2;" d="M17.107,5.854c1.566,0.002,2.834,1.27,2.836,2.836v6.468
			c-0.002,1.566-1.27,2.834-2.836,2.836h-6.468c-1.566-0.002-2.834-1.27-2.836-2.836V8.69c0.002-1.566,1.27-2.834,2.836-2.836
			H17.107 M17.107,3.924h-6.468C8.01,3.931,5.88,6.061,5.873,8.69v6.468c0.008,2.629,2.137,4.758,4.766,4.766h6.468
			c2.629-0.008,4.758-2.137,4.766-4.766V8.69C21.865,6.061,19.736,3.931,17.107,3.924z"/>
		<path id="パス_785" style="fill:#95A3B2;" d="M18.128,6.647c-0.564,0-1.021,0.457-1.021,1.021s0.457,1.021,1.021,1.021
			s1.021-0.457,1.021-1.021S18.691,6.647,18.128,6.647z"/>
		<g id="グループ_1485" transform="translate(3.745 3.745)">
			<path id="パス_786" style="fill:#95A3B2;" d="M10.128,5.854c1.283,0.002,2.323,1.042,2.325,2.325
				c-0.002,1.283-1.042,2.323-2.325,2.325c-1.283-0.002-2.323-1.042-2.325-2.325C7.804,6.895,8.844,5.855,10.128,5.854
				 M10.128,3.924c-2.35,0-4.255,1.905-4.255,4.255l0,0c0,2.35,1.905,4.255,4.255,4.255l0,0c2.351,0.002,4.258-1.901,4.26-4.252
				c0-0.001,0-0.002,0-0.003c0-2.35-1.905-4.255-4.255-4.255l0,0L10.128,3.924z"/>
		</g>
	</g>
</g>
</svg>
