<?xml version="1.0" encoding="utf-8"?>
<!-- Generator: Adobe Illustrator 24.3.0, SVG Export Plug-In . SVG Version: 6.00 Build 0)  -->
<svg version="1.1" id="レイヤー_1" xmlns="http://www.w3.org/2000/svg" xmlns:xlink="http://www.w3.org/1999/xlink" x="0px"
	 y="0px" viewBox="0 0 167.5 59.35" style="enable-background:new 0 0 167.5 59.35;" xml:space="preserve">
<g style="enable-background:new    ;">
	<path style="fill:#5DC2D0;" d="M11.107,41.375c2.475,3.418,5.118,5.127,7.93,5.127c1.296,0,2.408-0.522,3.333-1.566
		c0.792-0.892,1.187-2.416,1.187-4.571c0-2.071-0.581-3.746-1.743-5.026c-0.707-0.791-2.003-1.86-3.889-3.207l-1.288-0.935
		c-2.256-1.633-3.847-3.123-4.773-4.47c-1.717-2.509-2.576-5.093-2.576-7.753c0-2.946,0.842-5.405,2.525-7.375
		c1.902-2.256,4.445-3.384,7.627-3.384c3.501,0,6.6,1.415,9.293,4.243l-3.106,4.394c-0.775-1.111-1.524-1.911-2.248-2.399
		c-0.994-0.64-2.189-0.96-3.586-0.96c-1.465,0-2.593,0.539-3.384,1.617c-0.741,1.01-1.111,2.29-1.111,3.838
		c0,1.583,0.488,3.056,1.465,4.42c0.488,0.69,1.599,1.709,3.333,3.056l1.869,1.465l0.479,0.379c2.492,1.953,4.209,3.57,5.152,4.849
		c1.515,2.071,2.273,4.445,2.273,7.122c0,3.317-0.8,6.002-2.399,8.056c-1.919,2.458-4.689,3.688-8.309,3.688
		c-4.378,0-8.099-2.037-11.163-6.112L11.107,41.375z"/>
	<path style="fill:#5DC2D0;" d="M42.121,8.947h5.885l9.521,42.101h-6.264L48.99,39.986h-7.854l-2.273,11.062H32.6L42.121,8.947z
		 M48.156,34.758l-1.994-11.794c-0.455-2.609-0.783-5.076-0.986-7.399h-0.227c-0.219,2.307-0.463,4.293-0.732,5.96
		c-0.084,0.472-0.16,0.952-0.227,1.439l-2.021,11.794H48.156z"/>
	<path style="fill:#5DC2D0;" d="M59.295,9.149h6.213l3.99,18.36c0.453,2.156,0.9,5.455,1.338,9.9h0.201
		c0.389-4.26,0.834-7.56,1.34-9.9l3.99-18.36h6.213v41.898h-5.127l0.252-17.375c0.051-2.946,0.572-9.05,1.566-18.31h-0.203
		c-0.438,3.081-0.992,6.305-1.666,9.673l-3.814,18.992h-5.303l-3.814-18.992c-0.707-3.502-1.262-6.727-1.666-9.673h-0.201
		c1.01,9.934,1.531,16.037,1.564,18.31l0.254,17.375h-5.127V9.149z"/>
	<path style="fill:#5DC2D0;" d="M87.656,9.149h8.182c3.418,0,6.037,0.792,7.855,2.374c0.959,0.808,1.801,1.886,2.525,3.232
		c1.145,2.139,1.717,4.521,1.717,7.147c0,4.479-0.994,7.838-2.98,10.077c-1.027,1.179-2.467,2.08-4.318,2.703
		c-1.531,0.522-3.115,0.783-4.748,0.783h-2.273v15.583h-5.959V9.149z M93.615,14.327v15.987h1.818c2.307,0,3.975-0.724,5.002-2.172
		c0.857-1.229,1.287-3.266,1.287-6.111c0-2.711-0.455-4.647-1.363-5.809c-0.994-1.263-2.518-1.894-4.57-1.894H93.615z"/>
	<path style="fill:#5DC2D0;" d="M114.527,9.149h5.961v36.166h12.047v5.733h-18.008V9.149z"/>
	<path style="fill:#5DC2D0;" d="M139.58,9.149h18.26v5.43h-12.426v12.274h10.936v5.379h-10.936v13.234h12.881v5.582H139.58V9.149z"
		/>
</g>
</svg>
